<svg width="32" height="33" viewBox="0 0 32 33" fill="none" xmlns="http://www.w3.org/2000/svg">
<path d="M16 9.34766C14.6815 9.34766 13.3925 9.73865 12.2962 10.4712C11.1999 11.2037 10.3454 12.2449 9.84081 13.4631C9.33622 14.6813 9.2042 16.0217 9.46143 17.3149C9.71867 18.6081 10.3536 19.796 11.286 20.7284C12.2183 21.6607 13.4062 22.2957 14.6994 22.5529C15.9926 22.8101 17.3331 22.6781 18.5512 22.1735C19.7694 21.6689 20.8106 20.8145 21.5431 19.7181C22.2757 18.6218 22.6667 17.3329 22.6667 16.0143M17.334 4.08752C14.8621 3.8102 12.3651 4.30789 10.1884 5.51175C8.01168 6.7156 6.26288 8.56612 5.18389 10.8073C4.10489 13.0485 3.74902 15.5697 4.16551 18.022C4.582 20.4743 5.75026 22.7365 7.50869 24.4959C9.26711 26.2552 11.5288 27.4246 13.9809 27.8423C16.433 28.26 18.9543 27.9054 21.196 26.8275C23.4378 25.7497 25.2892 24.0018 26.4941 21.8257C27.6991 19.6497 28.198 17.1529 27.922 14.6809M20 12.0143V8.01432L24 4.01432V8.01432H28L24 12.0143H20ZM20 12.0143L16 16.0143M14.6667 16.0143C14.6667 16.3679 14.8071 16.7071 15.0572 16.9571C15.3072 17.2072 15.6464 17.3477 16 17.3477C16.3536 17.3477 16.6928 17.2072 16.9428 16.9571C17.1929 16.7071 17.3333 16.3679 17.3333 16.0143C17.3333 15.6607 17.1929 15.3216 16.9428 15.0715C16.6928 14.8215 16.3536 14.681 16 14.681C15.6464 14.681 15.3072 14.8215 15.0572 15.0715C14.8071 15.3216 14.6667 15.6607 14.6667 16.0143Z" stroke="white" stroke-width="2.5" stroke-linecap="round" stroke-linejoin="round"/>
</svg>
