<svg width="32" height="33" viewBox="0 0 32 33" fill="none" xmlns="http://www.w3.org/2000/svg">
<path d="M4 16.0156H5.33333M16 4.01562V5.34896M26.6667 16.0156H28M7.46667 7.48229L8.4 8.41563M24.5333 7.48229L23.6 8.41563M12.9336 22.6823H19.0669M12 21.349C10.8806 20.5094 10.0538 19.339 9.63658 18.0034C9.21938 16.6678 9.23297 15.2349 9.67545 13.9074C10.1179 12.58 10.9668 11.4255 12.1019 10.6073C13.237 9.78921 14.6008 9.34896 16 9.34896C17.3992 9.34896 18.763 9.78921 19.8981 10.6073C21.0332 11.4255 21.8821 12.58 22.3246 13.9074C22.767 15.2349 22.7806 16.6678 22.3634 18.0034C21.9462 19.339 21.1194 20.5094 20 21.349C19.4794 21.8643 19.0875 22.4949 18.8558 23.1898C18.6242 23.8847 18.5594 24.6244 18.6667 25.349C18.6667 26.0562 18.3857 26.7345 17.8856 27.2346C17.3855 27.7347 16.7072 28.0156 16 28.0156C15.2928 28.0156 14.6145 27.7347 14.1144 27.2346C13.6143 26.7345 13.3333 26.0562 13.3333 25.349C13.4406 24.6244 13.3758 23.8847 13.1442 23.1898C12.9125 22.4949 12.5206 21.8643 12 21.349Z" stroke="white" stroke-width="2.5" stroke-linecap="round" stroke-linejoin="round"/>
</svg>
