<svg width="32" height="33" viewBox="0 0 32 33" fill="none" xmlns="http://www.w3.org/2000/svg">
<path d="M16.0004 4.01562C19.1149 6.77106 23.1797 8.20571 27.3338 8.01563C27.9386 10.073 28.1236 12.2309 27.8779 14.3612C27.6323 16.4915 26.9609 18.5507 25.9036 20.4163C24.8464 22.282 23.425 23.9161 21.7237 25.2216C20.0225 26.5271 18.0761 27.4772 16.0004 28.0156M16.0004 4.01562C12.886 6.77106 8.82113 8.20571 4.6671 8.01563C4.06231 10.073 3.87725 12.2309 4.12293 14.3612C4.36861 16.4915 5.04001 18.5507 6.09722 20.4163C7.15444 22.282 8.57591 23.9161 10.2772 25.2216C11.9784 26.5271 13.9247 27.4772 16.0004 28.0156M16.0004 4.01562V28.0156M4.66732 16.0156H27.334" stroke="white" stroke-width="2.5" stroke-linecap="round" stroke-linejoin="round"/>
</svg>
